<svg xmlns="http://www.w3.org/2000/svg" version="1.1" xmlns:xlink="http://www.w3.org/1999/xlink" xmlns:svgjs="http://svgjs.dev/svgjs" width="1000" height="623" viewBox="0 0 1000 623"><g transform="matrix(1,0,0,1,-0.6060606060606233,0.2522267206477409)"><svg viewBox="0 0 396 247" data-background-color="#8d021f" preserveAspectRatio="xMidYMid meet" height="623" width="1000" xmlns="http://www.w3.org/2000/svg" xmlns:xlink="http://www.w3.org/1999/xlink"><g id="tight-bounds" transform="matrix(1,0,0,1,0.2400000000000091,-0.09999999999999432)"><svg viewBox="0 0 395.52 247.2" height="247.2" width="395.52"><g><svg></svg></g><g><svg viewBox="0 0 395.52 247.2" height="247.2" width="395.52"><mask id="e6a021a5-cfb7-4efb-8b55-2063c66ce17d"><rect width="640" height="400" fill="white"></rect><g transform="matrix(1,0,0,1,122.26099999999998,37.08)"><svg viewBox="0 0 150.99800000000002 173.04" height="173.04" width="150.99800000000002"><g><svg viewBox="0 0 150.99800000000002 173.04" height="173.04" width="150.99800000000002"><g><svg viewBox="0 0 150.99800000000002 173.04" height="173.04" width="150.99800000000002"><g><svg viewBox="0 0 150.99800000000002 173.04" height="173.04" width="150.99800000000002"><g id="SvgjsG1990"><svg viewBox="0 0 150.99800000000002 173.04" height="173.04" width="150.99800000000002" id="SvgjsSvg1989"><g><svg viewBox="0 0 150.99800000000002 173.04" height="173.04" width="150.99800000000002"><g transform="matrix(1,0,0,1,0,0)"><svg width="150.99800000000002" viewBox="-4.350000023841858 -39 37.64999961853027 43" height="173.04" data-palette-color="#ffffff"><path d="M18.7-35L29.3 0 22.1 0 19.6-8.55 9.05-8.55 6.6 0-0.35 0 10.15-35 18.7-35ZM10.5-14.3L18.25-14.3 14.4-28.7 10.5-14.3Z" opacity="1" transform="matrix(1,0,0,1,0,0)" fill="black" class="wordmark-text-0" id="SvgjsPath1988" stroke-width="7" stroke="black" stroke-linejoin="round"></path></svg></g></svg></g></svg></g></svg></g></svg></g></svg></g></svg></g></mask><g transform="matrix(1,0,0,1,122.26099999999998,37.08)"><svg viewBox="0 0 150.99800000000002 173.04" height="173.04" width="150.99800000000002"><g><svg viewBox="0 0 150.99800000000002 173.04" height="173.04" width="150.99800000000002"><g><svg viewBox="0 0 150.99800000000002 173.04" height="173.04" width="150.99800000000002"><g><svg viewBox="0 0 150.99800000000002 173.04" height="173.04" width="150.99800000000002"><g id="textblocktransform"><svg viewBox="0 0 150.99800000000002 173.04" height="173.04" width="150.99800000000002" id="textblock"><g><svg viewBox="0 0 150.99800000000002 173.04" height="173.04" width="150.99800000000002"><g transform="matrix(1,0,0,1,0,0)"><svg width="150.99800000000002" viewBox="-4.350000023841858 -39 37.64999961853027 43" height="173.04" data-palette-color="#ffffff"><path d="M18.7-35L29.3 0 22.1 0 19.6-8.55 9.05-8.55 6.6 0-0.35 0 10.15-35 18.7-35ZM10.5-14.3L18.25-14.3 14.4-28.7 10.5-14.3Z" opacity="1" transform="matrix(1,0,0,1,0,0)" fill="#ffffff" class="wordmark-text-0" data-fill-palette-color="primary" id="text-0"></path></svg></g></svg></g></svg></g></svg></g></svg></g></svg></g></svg></g><g mask="url(#e6a021a5-cfb7-4efb-8b55-2063c66ce17d)"><g transform="matrix(3.4794454124951617, 0, 0, 3.4794454124951617, 41.18515553318122, 1)"><svg xmlns="http://www.w3.org/2000/svg" xmlns:xlink="http://www.w3.org/1999/xlink" version="1.1" x="0" y="0" viewBox="5.0001115798950195 14.763997077941895 89.99988555908203 70.47100067138672" enable-background="new 0 0 100 100" xml:space="preserve" height="70.47100067138672" width="89.99988555908203" class="icon-none" data-fill-palette-color="accent" id="none"><path d="M64.226 70.58c4.544-4.09 7.713-9.571 8.765-15.736L95 53.631l-21.635-2.782c0.003-0.167 0.012-0.339 0.012-0.512 0-12.275-8.33-22.708-19.852-26.381l-2.108-9.192-5.548 7.818c-0.473-0.022-0.949-0.039-1.43-0.039-13.508 0-24.881 8.942-28.053 20.983L5.057 42.068c-0.128 0.423 0 16.526 0 16.526l11.565-0.634c0.387 1.308 0.868 2.565 1.444 3.784L7.455 76.695l12.631 0.963 4.268-7.351c5.208 4.835 12.289 7.812 20.085 7.812 4.457 0 8.677-0.975 12.453-2.71l10.692 9.826L64.226 70.58zM47.249 30.889l2.07 16.871-11.042-1.419L47.249 30.889zM29.779 45.251l-8.274-1.068c2.624-9.015 10.856-15.803 20.842-16.644L29.779 45.251zM32.019 57.108l18.321-1.007 1.833 14.974 0.716 0.656c-2.627 0.957-5.473 1.486-8.45 1.486-6.908 0-13.138-2.844-17.492-7.373L32.019 57.108zM60.771 55.522l6.955-0.384c-0.801 3.601-2.49 6.889-4.832 9.648L60.771 55.522zM59.284 49.04l-4.426-19.286c7.888 3.706 13.341 11.468 13.396 20.438L59.284 49.04z" fill="#ffffff" data-fill-palette-color="accent"></path></svg></g></g></svg></g><defs></defs></svg><rect width="395.52" height="247.2" fill="none" stroke="none" visibility="hidden"></rect></g></svg></g></svg>