<svg xmlns="http://www.w3.org/2000/svg" version="1.1" xmlns:xlink="http://www.w3.org/1999/xlink" xmlns:svgjs="http://svgjs.dev/svgjs" width="1000" height="623" viewBox="0 0 1000 623"><g transform="matrix(1,0,0,1,-0.6060606060606233,16.60438856840915)"><svg viewBox="0 0 396 247" data-background-color="#ffffff" preserveAspectRatio="xMidYMid meet" height="623" width="1000" xmlns="http://www.w3.org/2000/svg" xmlns:xlink="http://www.w3.org/1999/xlink"><g id="tight-bounds" transform="matrix(1,0,0,1,0.2400000000000091,-0.09999999999999432)"><svg viewBox="0 0 395.52 247.2" height="247.2" width="395.52"><g><svg></svg></g><g><svg viewBox="0 0 395.52 247.2" height="247.2" width="395.52"><mask id="e57ff559-e470-4279-8ade-8f3cc69527f5"><rect width="640" height="400" fill="white"></rect><g transform="matrix(1,0,0,1,113.21344537815125,37.08)"><svg viewBox="0 0 169.09310924369748 173.04" height="173.04" width="169.09310924369748"><g><svg viewBox="0 0 169.09310924369748 173.04" height="173.04" width="169.09310924369748"><g><svg viewBox="0 0 169.0931092436975 173.04000000000002" height="173.04" width="169.09310924369748"><g><svg viewBox="0 0 169.0931092436975 173.04000000000002" height="173.04000000000002" width="169.0931092436975"><g id="SvgjsG1914"><svg viewBox="0 0 169.0931092436975 173.04000000000002" height="173.04000000000002" width="169.0931092436975" id="SvgjsSvg1913"><g><svg viewBox="0 0 169.0931092436975 173.04000000000002" height="173.04000000000002" width="169.0931092436975"><g transform="matrix(1,0,0,1,0,0)"><svg width="169.0931092436975" viewBox="-3.75 -38.650001525878906 41.70000076293945 42.650001525878906" height="173.04000000000002" data-palette-color="#ffffff"><path d="M33.95 0L27.15 0Q26.45-2.05 25.7-4.05 24.95-6.05 24.25-8.15L24.25-8.15 9.65-8.15Q8.95-6.05 8.22-4.03 7.5-2 6.8 0L6.8 0 0.25 0Q2.2-5.55 3.95-10.25 5.7-14.95 7.38-19.15 9.05-23.35 10.7-27.15 12.35-30.95 14.1-34.65L14.1-34.65 20.05-34.65Q21.8-30.95 23.45-27.15 25.1-23.35 26.78-19.15 28.45-14.95 30.23-10.25 32-5.55 33.95 0L33.95 0ZM16.95-27.95L16.95-27.95Q15.8-25.3 14.33-21.5 12.85-17.7 11.25-13.25L11.25-13.25 22.65-13.25Q21.05-17.7 19.55-21.55 18.05-25.4 16.95-27.95Z" opacity="1" transform="matrix(1,0,0,1,0,0)" fill="black" class="wordmark-text-0" id="SvgjsPath1912" stroke-width="7" stroke="black" stroke-linejoin="round"></path></svg></g></svg></g></svg></g></svg></g></svg></g></svg></g></svg></g></mask><g transform="matrix(1,0,0,1,113.21344537815125,37.08)"><svg viewBox="0 0 169.09310924369748 173.04" height="173.04" width="169.09310924369748"><g><svg viewBox="0 0 169.09310924369748 173.04" height="173.04" width="169.09310924369748"><g><svg viewBox="0 0 169.0931092436975 173.04000000000002" height="173.04" width="169.09310924369748"><g><svg viewBox="0 0 169.0931092436975 173.04000000000002" height="173.04000000000002" width="169.0931092436975"><g id="textblocktransform"><svg viewBox="0 0 169.0931092436975 173.04000000000002" height="173.04000000000002" width="169.0931092436975" id="textblock"><g><svg viewBox="0 0 169.0931092436975 173.04000000000002" height="173.04000000000002" width="169.0931092436975"><g transform="matrix(1,0,0,1,0,0)"><svg width="169.0931092436975" viewBox="-3.75 -38.650001525878906 41.70000076293945 42.650001525878906" height="173.04000000000002" data-palette-color="#ffffff"><path d="M33.95 0L27.15 0Q26.45-2.05 25.7-4.05 24.95-6.05 24.25-8.15L24.25-8.15 9.65-8.15Q8.95-6.05 8.22-4.03 7.5-2 6.8 0L6.8 0 0.25 0Q2.2-5.55 3.95-10.25 5.7-14.95 7.38-19.15 9.05-23.35 10.7-27.15 12.35-30.95 14.1-34.65L14.1-34.65 20.05-34.65Q21.8-30.95 23.45-27.15 25.1-23.35 26.78-19.15 28.45-14.95 30.23-10.25 32-5.55 33.95 0L33.95 0ZM16.95-27.95L16.95-27.95Q15.8-25.3 14.33-21.5 12.85-17.7 11.25-13.25L11.25-13.25 22.65-13.25Q21.05-17.7 19.55-21.55 18.05-25.4 16.95-27.95Z" opacity="1" transform="matrix(1,0,0,1,0,0)" fill="#ffffff" class="wordmark-text-0" data-fill-palette-color="primary" id="text-0"></path></svg></g></svg></g></svg></g></svg></g></svg></g></svg></g></svg></g><g mask="url(#e57ff559-e470-4279-8ade-8f3cc69527f5)"><g transform="matrix(14.423529411764704, 0, 0, 14.423529411764704, 46.31294117647059, 1)"><svg xmlns="http://www.w3.org/2000/svg" data-name="Layer 1" viewBox="1.4999998807907104 3.5 21 17" x="0" y="0" height="17" width="21" class="icon-none" data-fill-palette-color="accent" id="none"><path d="M1.5 12a0.5 0.5 0 0 1 0.5-0.5A2.503 2.503 0 0 0 4.5 9V6A2.503 2.503 0 0 1 7 3.5H9a0.5 0.5 0 0 1 0 1H7A1.502 1.502 0 0 0 5.5 6V9a3.501 3.501 0 0 1-1.699 3A3.501 3.501 0 0 1 5.5 15v3A1.502 1.502 0 0 0 7 19.5H9a0.5 0.5 0 0 1 0 1H7A2.503 2.503 0 0 1 4.5 18V15A2.503 2.503 0 0 0 2 12.5 0.5 0.5 0 0 1 1.5 12ZM22 11.5A2.503 2.503 0 0 1 19.5 9V6A2.503 2.503 0 0 0 17 3.5H15a0.5 0.5 0 0 0 0 1h2A1.502 1.502 0 0 1 18.5 6V9a3.501 3.501 0 0 0 1.699 3A3.501 3.501 0 0 0 18.5 15v3A1.502 1.502 0 0 1 17 19.5H15a0.5 0.5 0 0 0 0 1h2A2.503 2.503 0 0 0 19.5 18V15A2.503 2.503 0 0 1 22 12.5a0.5 0.5 0 0 0 0-1Z" fill="#ffffff" data-fill-palette-color="accent"></path></svg></g></g></svg></g><defs></defs></svg><rect width="395.52" height="247.2" fill="none" stroke="none" visibility="hidden"></rect></g></svg></g></svg>